<svg xmlns="http://www.w3.org/2000/svg" width="39.5" height="42.808" viewBox="0 0 39.5 42.808">
  <g id="Icon" transform="translate(0.25 0.25)">
    <g id="Group_21" data-name="Group 21" transform="translate(26.177 20.199)">
      <g id="Group_20" data-name="Group 20" transform="translate(0 0)">
        <path id="Path_106" data-name="Path 106" d="M2887.508,998.279a2.47,2.47,0,0,1-2.468-2.468,2.646,2.646,0,0,1,.023-.326.5.5,0,0,1,.11-.251l1.332-1.61a.49.49,0,0,1,.226-.155,2.467,2.467,0,1,1,.776,4.809Zm-1.475-2.528c0,.02,0,.04,0,.061a1.476,1.476,0,1,0,1.476-1.476,1.457,1.457,0,0,0-.336.04Z" transform="translate(-2885.04 -993.343)" fill="#f2b02d" stroke="#f2b02d" stroke-width="0.5"/>
      </g>
    </g>
    <g id="Group_23" data-name="Group 23" transform="translate(0 20.199)">
      <g id="Group_22" data-name="Group 22" transform="translate(0 0)">
        <path id="Path_107" data-name="Path 107" d="M2525.169,998.279a2.468,2.468,0,1,1,.776-4.809.491.491,0,0,1,.226.155l1.333,1.61a.49.49,0,0,1,.11.251,2.51,2.51,0,0,1,.023.325A2.47,2.47,0,0,1,2525.169,998.279Zm0-3.944a1.476,1.476,0,1,0,1.476,1.476q0-.031,0-.061l-1.139-1.376A1.459,1.459,0,0,0,2525.169,994.335Z" transform="translate(-2522.701 -993.343)" fill="#f2b02d" stroke="#f2b02d" stroke-width="0.5"/>
      </g>
    </g>
    <g id="Group_25" data-name="Group 25" transform="translate(9.862)">
      <g id="Group_24" data-name="Group 24" transform="translate(0 0)">
        <path id="Path_108" data-name="Path 108" d="M2664.948,725.213a5.721,5.721,0,0,1-5.521-7.271.5.5,0,0,1,.956.265,4.752,4.752,0,1,0,1.315-2.177.5.5,0,0,1-.681-.721,5.733,5.733,0,1,1,3.931,9.9Z" transform="translate(-2659.213 -713.742)" fill="#f2b02d" stroke="#f2b02d" stroke-width="0.5"/>
      </g>
    </g>
    <g id="Group_27" data-name="Group 27" transform="translate(2.055 12.095)">
      <g id="Group_26" data-name="Group 26" transform="translate(0 0)">
        <path id="Path_109" data-name="Path 109" d="M2570.4,911.37h-4.411a.5.5,0,0,1-.5-.5V896.488a.8.8,0,1,0-1.6,0v14.386a.5.5,0,0,1-.5.5h-4.411a.5.5,0,0,1-.5-.5V888.227l-4.11,4.11a.5.5,0,0,1-.732-.035l-2.382-2.878a.5.5,0,0,1,.031-.667l6.261-6.261a4.616,4.616,0,0,1,5.128-.941,4.9,4.9,0,0,0,4.015,0,4.616,4.616,0,0,1,5.128.941l6.261,6.261a.5.5,0,0,1,.031.667l-2.381,2.878a.5.5,0,0,1-.732.035l-4.111-4.11v16.824a.5.5,0,1,1-.991,0V887.03a.5.5,0,0,1,.846-.351l4.571,4.571,1.747-2.11-5.942-5.942a3.62,3.62,0,0,0-4.021-.738,5.892,5.892,0,0,1-4.827,0,3.62,3.62,0,0,0-4.021.738l-5.942,5.942,1.747,2.11,4.572-4.571a.5.5,0,0,1,.846.351v23.348h3.419v-13.89a1.793,1.793,0,1,1,3.586,0v13.89h3.419v-2.462a.5.5,0,1,1,.991,0v2.958A.5.5,0,0,1,2570.4,911.37Z" transform="translate(-2551.154 -881.156)" fill="#f2b02d" stroke="#f2b02d" stroke-width="0.5"/>
      </g>
    </g>
    <g id="Group_35" data-name="Group 35" transform="translate(30.121)">
      <g id="Group_28" data-name="Group 28" transform="translate(0 0)">
        <path id="Path_110" data-name="Path 110" d="M2948.015,714.734h-7.887a.5.5,0,1,1,0-.992h7.887a.5.5,0,0,1,0,.992Z" transform="translate(-2939.632 -713.742)" fill="#f2b02d" stroke="#f2b02d" stroke-width="0.5"/>
      </g>
      <g id="Group_29" data-name="Group 29" transform="translate(0.657 6.886)">
        <path id="Path_111" data-name="Path 111" d="M2956.455,810.051h-7.23a.5.5,0,0,1,0-.992h7.23a.5.5,0,0,1,0,.992Z" transform="translate(-2948.728 -809.059)" fill="#f2b02d" stroke="#f2b02d" stroke-width="0.5"/>
      </g>
      <g id="Group_30" data-name="Group 30" transform="translate(1.314 13.772)">
        <path id="Path_112" data-name="Path 112" d="M2964.894,905.371h-6.573a.5.5,0,1,1,0-.992h6.573a.5.5,0,1,1,0,.992Z" transform="translate(-2957.825 -904.38)" fill="#f2b02d" stroke="#f2b02d" stroke-width="0.5"/>
      </g>
      <g id="Group_31" data-name="Group 31" transform="translate(1.972 20.658)">
        <path id="Path_113" data-name="Path 113" d="M2973.333,1000.688h-5.915a.5.5,0,1,1,0-.992h5.915a.5.5,0,0,1,0,.992Z" transform="translate(-2966.922 -999.696)" fill="#f2b02d" stroke="#f2b02d" stroke-width="0.5"/>
      </g>
      <g id="Group_32" data-name="Group 32" transform="translate(2.629 27.544)">
        <path id="Path_114" data-name="Path 114" d="M2981.777,1096h-5.258a.5.5,0,0,1,0-.992h5.258a.5.5,0,0,1,0,.992Z" transform="translate(-2976.023 -1095.013)" fill="#f2b02d" stroke="#f2b02d" stroke-width="0.5"/>
      </g>
      <g id="Group_33" data-name="Group 33" transform="translate(3.286 34.43)">
        <path id="Path_115" data-name="Path 115" d="M2990.217,1191.326h-4.6a.5.5,0,1,1,0-.991h4.6a.5.5,0,1,1,0,.991Z" transform="translate(-2985.12 -1190.334)" fill="#f2b02d" stroke="#f2b02d" stroke-width="0.5"/>
      </g>
      <g id="Group_34" data-name="Group 34" transform="translate(3.943 41.316)">
        <path id="Path_116" data-name="Path 116" d="M2998.657,1286.642h-3.943a.5.5,0,1,1,0-.992h3.943a.5.5,0,0,1,0,.992Z" transform="translate(-2994.218 -1285.65)" fill="#f2b02d" stroke="#f2b02d" stroke-width="0.5"/>
      </g>
    </g>
  </g>
</svg>
