<svg id="Icon" xmlns="http://www.w3.org/2000/svg" width="38" height="38.154" viewBox="0 0 38 38.154">
  <path id="Path_186" data-name="Path 186" d="M2596.174,900.084a.807.807,0,0,0,.671.359h12.568a.807.807,0,0,0,.671-.359l4.561-6.842a.807.807,0,0,0-.1-1.015,16.057,16.057,0,0,0-22.837,0,.807.807,0,0,0-.1,1.015Zm4.745-1.254a2.893,2.893,0,0,1,4.421,0Zm-4.732-7.987.836,1.326a.807.807,0,1,0,1.365-.861l-.735-1.165a14.368,14.368,0,0,1,4.669-1.047v1.644a.807.807,0,1,0,1.613,0V889.1a14.369,14.369,0,0,1,4.669,1.047l-.735,1.165a.807.807,0,1,0,1.365.861l.836-1.326a14.466,14.466,0,0,1,2.858,2.063l-3.948,5.923h-1.747a4.548,4.548,0,0,0-4.106-2.64,4.458,4.458,0,0,0-1.524.27l-1.343-2.145a.807.807,0,1,0-1.367.856l1.315,2.1a4.521,4.521,0,0,0-1.186,1.559h-1.747l-3.949-5.923A14.468,14.468,0,0,1,2596.188,890.843Z" transform="translate(-2584.129 -883.522)" fill="#f2b02d"/>
  <path id="Path_187" data-name="Path 187" d="M2372.9,766.759a6.9,6.9,0,0,0-6.885,7.308l1.608,26.993a3.978,3.978,0,0,0,3.966,3.737h26.825a3.978,3.978,0,0,0,3.966-3.737l1.609-26.993a6.9,6.9,0,0,0-6.885-7.308h-2.85l-9.242-.116h-.02l-9.237.116Zm12.1,1.5,9.237.116h2.865a5.284,5.284,0,0,1,5.275,5.6l-1.609,26.993a2.362,2.362,0,0,1-2.355,2.219h-26.825a2.362,2.362,0,0,1-2.355-2.219l-1.609-26.993a5.284,5.284,0,0,1,5.275-5.6h2.865Z" transform="translate(-2366 -766.643)" fill="#f2b02d"/>
</svg>
