<svg xmlns="http://www.w3.org/2000/svg" width="49.834" height="42.54" viewBox="0 0 49.834 42.54">
  <g id="Icon" transform="translate(0.25 0.29)">
    <g id="Group_48" data-name="Group 48" transform="translate(0 18.492)">
      <g id="Group_36" data-name="Group 36" transform="translate(2.436 8.316)">
        <path id="Path_117" data-name="Path 117" d="M1318.562,2567.515a8.96,8.96,0,0,1-2.609-.474l-.216-.062a.449.449,0,0,1,.248-.864l.218.063a8.266,8.266,0,0,0,2.359.438,9.3,9.3,0,0,0,7.437-3.568.449.449,0,1,1,.718.541A10.206,10.206,0,0,1,1318.562,2567.515Z" transform="translate(-1315.412 -2562.87)" fill="#f2b02d" stroke="#f2b02d" stroke-width="0.5"/>
      </g>
      <g id="Group_37" data-name="Group 37" transform="translate(12.933 8.316)">
        <path id="Path_118" data-name="Path 118" d="M1500.131,2566.975a10.244,10.244,0,0,1-7.687-3.355.449.449,0,0,1,.672-.6,9.345,9.345,0,0,0,7.016,3.053c.091,0,.182,0,.272-.006h.048a.449.449,0,1,1,.028.9h-.047C1500.332,2566.971,1500.232,2566.975,1500.131,2566.975Z" transform="translate(-1492.33 -2562.872)" fill="#f2b02d" stroke="#f2b02d" stroke-width="0.5"/>
      </g>
      <g id="Group_38" data-name="Group 38" transform="translate(9.359 18.741)">
        <path id="Path_119" data-name="Path 119" d="M1434.735,2740.187a3.79,3.79,0,0,1-2.5-.836.449.449,0,1,1,.6-.665,3.272,3.272,0,0,0,3.784,0,.449.449,0,0,1,.6.665A3.79,3.79,0,0,1,1434.735,2740.187Z" transform="translate(-1432.092 -2738.569)" fill="#f2b02d" stroke="#f2b02d" stroke-width="0.5"/>
      </g>
      <g id="Group_39" data-name="Group 39" transform="translate(3.392 16.818)">
        <path id="Path_120" data-name="Path 120" d="M1340.061,2712.62a9.155,9.155,0,0,1-8.494-5.835.449.449,0,1,1,.839-.323,8.2,8.2,0,0,0,15.313-.006.449.449,0,1,1,.839.322A9.154,9.154,0,0,1,1340.061,2712.62Z" transform="translate(-1331.536 -2706.167)" fill="#f2b02d" stroke="#f2b02d" stroke-width="0.5"/>
      </g>
      <g id="Group_43" data-name="Group 43" transform="translate(0 2.344)">
        <g id="Group_40" data-name="Group 40" transform="translate(2.434)">
          <path id="Path_121" data-name="Path 121" d="M1315.828,2472.31a.449.449,0,0,1-.449-.445v-.025c0-.02,0-.04,0-.06a9.569,9.569,0,1,1,19.137,0c0,.006,0,.024,0,.029a.449.449,0,0,1-.9,0c0-.005,0-.024,0-.029a8.67,8.67,0,0,0-17.34,0l0,.077a.449.449,0,0,1-.445.454Z" transform="translate(-1315.377 -2462.211)" fill="#f2b02d" stroke="#f2b02d" stroke-width="0.5"/>
        </g>
        <g id="Group_41" data-name="Group 41" transform="translate(0 9.127)">
          <path id="Path_122" data-name="Path 122" d="M1278.2,2622.289h-.019a3.727,3.727,0,0,1-3.824-3.658,2.366,2.366,0,0,1,2.332-2.594,2.594,2.594,0,0,1,.67.089.449.449,0,0,1-.233.868,1.682,1.682,0,0,0-.437-.059,1.507,1.507,0,0,0-1.433,1.7,2.858,2.858,0,0,0,2.961,2.76.449.449,0,0,1-.018.9Z" transform="translate(-1274.36 -2616.036)" fill="#f2b02d" stroke="#f2b02d" stroke-width="0.5"/>
        </g>
        <g id="Group_42" data-name="Group 42" transform="translate(19.544 9.127)">
          <path id="Path_123" data-name="Path 123" d="M1604.208,2622.282a.449.449,0,0,1-.028-.9,2.809,2.809,0,0,0,2.857-2.755,1.507,1.507,0,0,0-1.433-1.7,1.694,1.694,0,0,0-.211.014.449.449,0,1,1-.114-.891,2.577,2.577,0,0,1,.325-.021,2.366,2.366,0,0,1,2.332,2.594,3.721,3.721,0,0,1-3.7,3.652Z" transform="translate(-1603.759 -2616.036)" fill="#f2b02d" stroke="#f2b02d" stroke-width="0.5"/>
        </g>
      </g>
      <g id="Group_44" data-name="Group 44" transform="translate(10.382 0)">
        <path id="Path_124" data-name="Path 124" d="M1451.9,2425.961l-.038,0a.449.449,0,0,1-.4-.352c0-.019-.455-2-1.677-2a.449.449,0,1,1,0-.9,2.571,2.571,0,0,1,2.223,1.741,2.078,2.078,0,0,1,1.6-.9.449.449,0,1,1,0,.9c-.775,0-1.286,1.214-1.291,1.226A.45.45,0,0,1,1451.9,2425.961Z" transform="translate(-1449.337 -2422.713)" fill="#f2b02d" stroke="#f2b02d" stroke-width="0.5"/>
      </g>
      <g id="Group_47" data-name="Group 47" transform="translate(7.011 13.707)">
        <g id="Group_45" data-name="Group 45" transform="translate(8.465)">
          <path id="Path_125" data-name="Path 125" d="M1535.869,2655.99a.674.674,0,0,1-.674-.674v-.91a.674.674,0,1,1,1.348,0v.91A.674.674,0,0,1,1535.869,2655.99Z" transform="translate(-1535.195 -2653.732)" fill="#f2b02d" stroke="#f2b02d" stroke-width="0.5"/>
        </g>
        <g id="Group_46" data-name="Group 46">
          <path id="Path_126" data-name="Path 126" d="M1393.2,2655.99a.674.674,0,0,1-.674-.674v-.91a.674.674,0,1,1,1.348,0v.91A.674.674,0,0,1,1393.2,2655.99Z" transform="translate(-1392.53 -2653.732)" fill="#f2b02d" stroke="#f2b02d" stroke-width="0.5"/>
        </g>
      </g>
    </g>
    <g id="Group_65" data-name="Group 65" transform="translate(25.613 20.031)">
      <g id="Group_51" data-name="Group 51" transform="translate(7.096 12.405)">
        <g id="Group_49" data-name="Group 49" transform="translate(8.465)">
          <path id="Path_127" data-name="Path 127" d="M1968.982,2659.982a.674.674,0,0,1-.674-.674v-.91a.674.674,0,1,1,1.348,0v.91A.674.674,0,0,1,1968.982,2659.982Z" transform="translate(-1968.308 -2657.724)" fill="#f2b02d" stroke="#f2b02d" stroke-width="0.5"/>
        </g>
        <g id="Group_50" data-name="Group 50">
          <path id="Path_128" data-name="Path 128" d="M1826.316,2659.982a.674.674,0,0,1-.674-.674v-.91a.674.674,0,1,1,1.348,0v.91A.674.674,0,0,1,1826.316,2659.982Z" transform="translate(-1825.642 -2657.724)" fill="#f2b02d" stroke="#f2b02d" stroke-width="0.5"/>
        </g>
      </g>
      <g id="Group_52" data-name="Group 52" transform="translate(9.358 17.439)">
        <path id="Path_129" data-name="Path 129" d="M1866.42,2744.181a3.791,3.791,0,0,1-2.5-.836.449.449,0,0,1,.6-.665,3.272,3.272,0,0,0,3.784,0,.449.449,0,0,1,.6.665A3.79,3.79,0,0,1,1866.42,2744.181Z" transform="translate(-1863.777 -2742.563)" fill="#f2b02d" stroke="#f2b02d" stroke-width="0.5"/>
      </g>
      <g id="Group_53" data-name="Group 53" transform="translate(3.392 15.516)">
        <path id="Path_130" data-name="Path 130" d="M1771.749,2716.611a9.155,9.155,0,0,1-8.494-5.836.449.449,0,1,1,.839-.323,8.2,8.2,0,0,0,15.313-.006.449.449,0,1,1,.839.322A9.154,9.154,0,0,1,1771.749,2716.611Z" transform="translate(-1763.225 -2710.158)" fill="#f2b02d" stroke="#f2b02d" stroke-width="0.5"/>
      </g>
      <g id="Group_56" data-name="Group 56" transform="translate(0 10.169)">
        <g id="Group_54" data-name="Group 54">
          <path id="Path_131" data-name="Path 131" d="M1709.891,2626.281h-.019a3.727,3.727,0,0,1-3.824-3.659,2.366,2.366,0,0,1,2.332-2.594,2.589,2.589,0,0,1,.669.089.449.449,0,0,1-.233.868,1.689,1.689,0,0,0-.437-.059,1.507,1.507,0,0,0-1.433,1.7,2.858,2.858,0,0,0,2.961,2.76.449.449,0,0,1-.018.9Z" transform="translate(-1706.049 -2620.028)" fill="#f2b02d" stroke="#f2b02d" stroke-width="0.5"/>
        </g>
        <g id="Group_55" data-name="Group 55" transform="translate(19.544)">
          <path id="Path_132" data-name="Path 132" d="M2035.9,2626.275a.449.449,0,0,1-.028-.9,2.809,2.809,0,0,0,2.857-2.755,1.507,1.507,0,0,0-1.433-1.7,1.689,1.689,0,0,0-.211.014.449.449,0,1,1-.114-.891,2.581,2.581,0,0,1,.325-.021,2.366,2.366,0,0,1,2.332,2.594,3.72,3.72,0,0,1-3.7,3.652Z" transform="translate(-2035.448 -2620.028)" fill="#f2b02d" stroke="#f2b02d" stroke-width="0.5"/>
        </g>
      </g>
      <g id="Group_57" data-name="Group 57" transform="translate(3.841 15.182)">
        <path id="Path_133" data-name="Path 133" d="M1774.754,2707.4a.484.484,0,0,1-.149-.024c-.081-.026-.813-.3-1.481-1.6a.591.591,0,0,0-.364-.32,2.118,2.118,0,0,0-1.318.243.449.449,0,1,1-.425-.792,2.962,2.962,0,0,1,2.011-.309,1.493,1.493,0,0,1,.9.768,3.387,3.387,0,0,0,.667.936c.45-.589,1.58-1.442,4.351-1.442a.449.449,0,0,1,0,.9c-3.293,0-3.763,1.3-3.767,1.317a.436.436,0,0,1-.218.273A.424.424,0,0,1,1774.754,2707.4Z" transform="translate(-1770.78 -2704.523)" fill="#f2b02d" stroke="#f2b02d" stroke-width="0.5"/>
      </g>
      <g id="Group_58" data-name="Group 58" transform="translate(11.553 15.182)">
        <path id="Path_134" data-name="Path 134" d="M1905.411,2707.4a.449.449,0,0,1-.434-.333s-.47-1.3-3.764-1.3a.449.449,0,0,1,0-.9c2.772,0,3.9.854,4.351,1.443a3.408,3.408,0,0,0,.666-.937,1.493,1.493,0,0,1,.9-.768,2.957,2.957,0,0,1,2.011.309.449.449,0,0,1-.424.792,2.094,2.094,0,0,0-1.32-.243.591.591,0,0,0-.362.319c-.668,1.3-1.4,1.573-1.481,1.6A.445.445,0,0,1,1905.411,2707.4Z" transform="translate(-1900.764 -2704.518)" fill="#f2b02d" stroke="#f2b02d" stroke-width="0.5"/>
      </g>
      <g id="Group_63" data-name="Group 63" transform="translate(2.434 0)">
        <g id="Group_59" data-name="Group 59" transform="translate(15.771 3.927)">
          <path id="Path_135" data-name="Path 135" d="M2015.8,2521.988a.452.452,0,0,1-.449-.453c0-.006,0-.025,0-.032a8.633,8.633,0,0,0-2.345-5.92.449.449,0,1,1,.656-.615,9.532,9.532,0,0,1,2.588,6.542c0,.006,0,.025,0,.031A.447.447,0,0,1,2015.8,2521.988Z" transform="translate(-2012.882 -2514.826)" fill="#f2b02d" stroke="#f2b02d" stroke-width="0.5"/>
        </g>
        <g id="Group_60" data-name="Group 60" transform="translate(0 1.042)">
          <path id="Path_136" data-name="Path 136" d="M1747.519,2476.3a.449.449,0,0,1-.449-.446v-.026c0-.02,0-.039,0-.058a9.579,9.579,0,0,1,9.568-9.569.449.449,0,0,1,0,.9,8.68,8.68,0,0,0-8.67,8.67l0,.079a.449.449,0,0,1-.447.452Z" transform="translate(-1747.068 -2466.203)" fill="#f2b02d" stroke="#f2b02d" stroke-width="0.5"/>
        </g>
        <g id="Group_61" data-name="Group 61" transform="translate(0 3.927)">
          <path id="Path_137" data-name="Path 137" d="M1748.373,2524.1h-.855a.449.449,0,0,1-.449-.449v-2.062a.449.449,0,1,1,.9,0v1.613h.406a.6.6,0,0,0,.637-.555v-1.132a.449.449,0,0,1,.474-.449,2.834,2.834,0,0,0,1.817-.554,1.393,1.393,0,0,0,.41-1.068.449.449,0,0,1,.724-.356,7.554,7.554,0,0,0,4.517,1.108c3.556,0,4.86-1.856,5.912-5.063a.449.449,0,0,1,.854.28c-.943,2.875-2.242,5.682-6.765,5.682a9.375,9.375,0,0,1-4.445-.893,2.138,2.138,0,0,1-.59.965,3.359,3.359,0,0,1-2.007.784v.7A1.5,1.5,0,0,1,1748.373,2524.1Z" transform="translate(-1747.068 -2514.826)" fill="#f2b02d" stroke="#f2b02d" stroke-width="0.5"/>
        </g>
        <g id="Group_62" data-name="Group 62" transform="translate(9.119)">
          <path id="Path_138" data-name="Path 138" d="M1907.866,2453.469a.45.45,0,0,1-.427-.59c.151-.461.276-.829.44-1.306.172-.5.1-.895-.186-1.027-.23-.107-.594-.027-.848.4-.206.346-.438.739-.845.562s-.308-.542-.078-1.336a.461.461,0,0,0-.186-.59c-.175-.086-.475-.059-.744.305-.665.9-1.586.83-2.65.75-.355-.027-.723-.054-1.129-.054a.449.449,0,0,1,0-.9c.44,0,.842.03,1.2.057,1.033.078,1.5.092,1.86-.388a1.485,1.485,0,0,1,1.865-.576,1.274,1.274,0,0,1,.7.982,1.447,1.447,0,0,1,1.232-.03,1.614,1.614,0,0,1,.659,2.135c-.162.473-.286.838-.436,1.294A.449.449,0,0,1,1907.866,2453.469Z" transform="translate(-1900.764 -2448.643)" fill="#f2b02d" stroke="#f2b02d" stroke-width="0.5"/>
        </g>
      </g>
      <g id="Group_64" data-name="Group 64" transform="translate(16.048 8.098)">
        <path id="Path_139" data-name="Path 139" d="M1981.592,2590.229h-.772a1.561,1.561,0,0,1-1.6-1.514v-.634a3.359,3.359,0,0,1-2.007-.784,2.274,2.274,0,0,1-.693-1.723.449.449,0,1,1,.9,0,1.393,1.393,0,0,0,.41,1.068,2.837,2.837,0,0,0,1.818.554.45.45,0,0,1,.473.449v1.071a.664.664,0,0,0,.7.615h.323v-1.349a.449.449,0,0,1,.9,0v1.8A.449.449,0,0,1,1981.592,2590.229Z" transform="translate(-1976.518 -2585.123)" fill="#f2b02d" stroke="#f2b02d" stroke-width="0.5"/>
      </g>
    </g>
    <g id="Group_81" data-name="Group 81" transform="translate(12.955)">
      <g id="Group_68" data-name="Group 68" transform="translate(7.096 12.405)">
        <g id="Group_66" data-name="Group 66" transform="translate(8.465)">
          <path id="Path_140" data-name="Path 140" d="M1755.647,2322.38a.674.674,0,0,1-.674-.674v-.91a.674.674,0,1,1,1.348,0v.91A.674.674,0,0,1,1755.647,2322.38Z" transform="translate(-1754.973 -2320.122)" fill="#f2b02d" stroke="#f2b02d" stroke-width="0.5"/>
        </g>
        <g id="Group_67" data-name="Group 67">
          <path id="Path_141" data-name="Path 141" d="M1612.982,2322.38a.674.674,0,0,1-.674-.674v-.91a.674.674,0,1,1,1.348,0v.91A.674.674,0,0,1,1612.982,2322.38Z" transform="translate(-1612.308 -2320.122)" fill="#f2b02d" stroke="#f2b02d" stroke-width="0.5"/>
        </g>
      </g>
      <g id="Group_69" data-name="Group 69" transform="translate(9.359 17.439)">
        <path id="Path_142" data-name="Path 142" d="M1653.088,2406.577a3.79,3.79,0,0,1-2.5-.836.449.449,0,1,1,.6-.665,3.272,3.272,0,0,0,3.784,0,.449.449,0,1,1,.6.665A3.79,3.79,0,0,1,1653.088,2406.577Z" transform="translate(-1650.445 -2404.959)" fill="#f2b02d" stroke="#f2b02d" stroke-width="0.5"/>
      </g>
      <g id="Group_70" data-name="Group 70" transform="translate(3.392 15.516)">
        <path id="Path_143" data-name="Path 143" d="M1558.414,2379.008a9.155,9.155,0,0,1-8.494-5.835.449.449,0,1,1,.839-.323,8.2,8.2,0,0,0,15.313-.006.449.449,0,0,1,.839.322A9.154,9.154,0,0,1,1558.414,2379.008Z" transform="translate(-1549.89 -2372.555)" fill="#f2b02d" stroke="#f2b02d" stroke-width="0.5"/>
      </g>
      <g id="Group_73" data-name="Group 73" transform="translate(0 10.169)">
        <g id="Group_71" data-name="Group 71">
          <path id="Path_144" data-name="Path 144" d="M1496.555,2288.679h-.019a3.727,3.727,0,0,1-3.824-3.658,2.366,2.366,0,0,1,2.332-2.594,2.583,2.583,0,0,1,.67.089.449.449,0,0,1-.233.868,1.681,1.681,0,0,0-.437-.059,1.506,1.506,0,0,0-1.433,1.7,2.858,2.858,0,0,0,2.961,2.76.449.449,0,0,1-.018.9Z" transform="translate(-1492.713 -2282.426)" fill="#f2b02d" stroke="#f2b02d" stroke-width="0.5"/>
        </g>
        <g id="Group_72" data-name="Group 72" transform="translate(19.544)">
          <path id="Path_145" data-name="Path 145" d="M1822.562,2288.673a.449.449,0,0,1-.028-.9,2.809,2.809,0,0,0,2.857-2.755,1.507,1.507,0,0,0-1.433-1.7,1.691,1.691,0,0,0-.211.014.449.449,0,1,1-.114-.891,2.578,2.578,0,0,1,.325-.021,2.366,2.366,0,0,1,2.332,2.594,3.721,3.721,0,0,1-3.7,3.652Z" transform="translate(-1822.113 -2282.426)" fill="#f2b02d" stroke="#f2b02d" stroke-width="0.5"/>
        </g>
      </g>
      <g id="Group_79" data-name="Group 79" transform="translate(2.434 0)">
        <g id="Group_74" data-name="Group 74" transform="translate(15.772 3.927)">
          <path id="Path_146" data-name="Path 146" d="M1802.463,2184.385a.452.452,0,0,1-.449-.453c0-.006,0-.025,0-.031a8.634,8.634,0,0,0-2.345-5.92.449.449,0,1,1,.656-.615,9.532,9.532,0,0,1,2.588,6.542c0,.006,0,.025,0,.031A.447.447,0,0,1,1802.463,2184.385Z" transform="translate(-1799.547 -2177.224)" fill="#f2b02d" stroke="#f2b02d" stroke-width="0.5"/>
        </g>
        <g id="Group_75" data-name="Group 75" transform="translate(0 1.042)">
          <path id="Path_147" data-name="Path 147" d="M1534.181,2138.7a.449.449,0,0,1-.449-.445v-.025c0-.02,0-.04,0-.06a9.579,9.579,0,0,1,9.569-9.569.449.449,0,1,1,0,.9,8.68,8.68,0,0,0-8.67,8.67l0,.077a.449.449,0,0,1-.445.454Z" transform="translate(-1533.73 -2128.601)" fill="#f2b02d" stroke="#f2b02d" stroke-width="0.5"/>
        </g>
        <g id="Group_76" data-name="Group 76" transform="translate(0 3.927)">
          <path id="Path_148" data-name="Path 148" d="M1535.035,2186.5h-.855a.449.449,0,0,1-.449-.449v-2.062a.449.449,0,1,1,.9,0v1.612h.406a.6.6,0,0,0,.637-.554v-1.132a.449.449,0,0,1,.474-.448,2.837,2.837,0,0,0,1.817-.554,1.392,1.392,0,0,0,.41-1.068.45.45,0,0,1,.724-.356,7.55,7.55,0,0,0,4.517,1.108c3.556,0,4.86-1.856,5.912-5.063a.449.449,0,0,1,.854.28c-.943,2.875-2.242,5.682-6.765,5.682a9.377,9.377,0,0,1-4.445-.893,2.138,2.138,0,0,1-.59.965,3.359,3.359,0,0,1-2.007.784v.7A1.5,1.5,0,0,1,1535.035,2186.5Z" transform="translate(-1533.73 -2177.224)" fill="#f2b02d" stroke="#f2b02d" stroke-width="0.5"/>
        </g>
        <g id="Group_77" data-name="Group 77" transform="translate(14.365 0.964)">
          <path id="Path_149" data-name="Path 149" d="M1777.689,2131.146a.449.449,0,0,1-.427-.589c.151-.461.276-.829.44-1.306.172-.5.1-.895-.186-1.027-.23-.107-.594-.027-.848.4a.449.449,0,0,1-.773-.459,1.574,1.574,0,0,1,2-.758,1.614,1.614,0,0,1,.659,2.135c-.162.473-.286.838-.436,1.294A.449.449,0,0,1,1777.689,2131.146Z" transform="translate(-1775.832 -2127.284)" fill="#f2b02d" stroke="#f2b02d" stroke-width="0.5"/>
        </g>
        <g id="Group_78" data-name="Group 78" transform="translate(9.119)">
          <path id="Path_150" data-name="Path 150" d="M1693.019,2113.145a.45.45,0,0,1-.432-.575.461.461,0,0,0-.186-.59c-.175-.086-.475-.059-.744.3-.665.9-1.586.83-2.65.75-.355-.027-.723-.054-1.129-.054a.449.449,0,1,1,0-.9c.44,0,.842.03,1.2.057,1.033.077,1.5.092,1.86-.388a1.485,1.485,0,0,1,1.865-.576,1.347,1.347,0,0,1,.651,1.646A.45.45,0,0,1,1693.019,2113.145Z" transform="translate(-1687.429 -2111.04)" fill="#f2b02d" stroke="#f2b02d" stroke-width="0.5"/>
        </g>
      </g>
      <g id="Group_80" data-name="Group 80" transform="translate(16.048 8.098)">
        <path id="Path_151" data-name="Path 151" d="M1768.258,2252.625h-.772a1.561,1.561,0,0,1-1.6-1.514v-.634a3.358,3.358,0,0,1-2.007-.784,2.273,2.273,0,0,1-.693-1.723.449.449,0,0,1,.9,0,1.393,1.393,0,0,0,.41,1.069,2.836,2.836,0,0,0,1.818.554.45.45,0,0,1,.473.449v1.071a.664.664,0,0,0,.7.615h.323v-1.349a.449.449,0,1,1,.9,0v1.8A.449.449,0,0,1,1768.258,2252.625Z" transform="translate(-1763.184 -2247.52)" fill="#f2b02d" stroke="#f2b02d" stroke-width="0.5"/>
      </g>
    </g>
  </g>
</svg>
