<svg id="Icon" xmlns="http://www.w3.org/2000/svg" width="42" height="42" viewBox="0 0 42 42">
  <path id="Path_158" data-name="Path 158" d="M891.151,451.219a.612.612,0,0,0-.647-1.038,2.721,2.721,0,0,1-2.826,0,.612.612,0,0,0-.647,1.038,3.9,3.9,0,0,0,4.12,0Z" transform="translate(-878.288 -435.292)" fill="#f2b02d"/>
  <path id="Path_159" data-name="Path 159" d="M875.084,407.176a.612.612,0,0,0-.612.612v1.274a.612.612,0,1,0,1.223,0v-1.274A.612.612,0,0,0,875.084,407.176Z" transform="translate(-867.336 -396.993)" fill="#f2b02d"/>
  <path id="Path_160" data-name="Path 160" d="M931.993,409.673a.612.612,0,0,0,.612-.612v-1.274a.612.612,0,0,0-1.223,0v1.274A.612.612,0,0,0,931.993,409.673Z" transform="translate(-918.129 -396.993)" fill="#f2b02d"/>
  <path id="Path_161" data-name="Path 161" d="M1092.958,474.171a1.863,1.863,0,0,1-1.934,0,.612.612,0,1,0-.647,1.038,3.056,3.056,0,0,0,3.228,0,.612.612,0,1,0-.647-1.038Z" transform="translate(-1059.778 -456.704)" fill="#f2b02d"/>
  <path id="Path_162" data-name="Path 162" d="M1076.046,434.588a.611.611,0,0,0-.612.612v1.147a.612.612,0,1,0,1.223,0V435.2A.612.612,0,0,0,1076.046,434.588Z" transform="translate(-1046.699 -421.459)" fill="#f2b02d"/>
  <path id="Path_163" data-name="Path 163" d="M1129.4,434.588a.612.612,0,0,0-.612.612v1.147a.612.612,0,1,0,1.223,0V435.2A.612.612,0,0,0,1129.4,434.588Z" transform="translate(-1094.317 -421.459)" fill="#f2b02d"/>
  <path id="Path_164" data-name="Path 164" d="M848.931,324.174a7.626,7.626,0,0,0-7.618-7.618H839.27a7.626,7.626,0,0,0-7.618,7.618v11.7a7.19,7.19,0,0,0-2.546-.479,4.164,4.164,0,0,0-2.25-1.813l-4.813-1.6v-1.237a7.013,7.013,0,0,0,3.55-4.3,11.7,11.7,0,0,0,2.1-6.2c0-4.667-3.578-7.8-8.9-7.8-5.215,0-8.718,3.136-8.718,7.8a12.363,12.363,0,0,0,2.093,6.183,7.013,7.013,0,0,0,3.568,4.324v1.23l-4.82,1.6a4.138,4.138,0,0,0-2.835,3.934v16.311a.612.612,0,0,0,.612.612h40.777a.612.612,0,0,0,.612-.612V340.1a3.785,3.785,0,0,0-1.147-2.713Zm-16.056,0a6.4,6.4,0,0,1,6.394-6.394h2.044a6.4,6.4,0,0,1,6.394,6.394V336.59c-.073-.029-.146-.059-.221-.084l-4.289-1.43v-1.949a6.351,6.351,0,0,0,3.439-5.638V325.2a6.266,6.266,0,0,0-.128-1.27h0a.513.513,0,0,0-.073-.185c-.007-.012-.012-.024-.019-.035a.59.59,0,0,0-.054-.066c-.007-.008-.013-.017-.021-.025a.645.645,0,0,0-.057-.047c-.012-.009-.022-.019-.034-.028s-.036-.02-.054-.029-.033-.019-.051-.027a.578.578,0,0,0-.059-.018c-.018-.006-.036-.013-.055-.017a.6.6,0,0,0-.121-.012h-1.031a1.684,1.684,0,0,1-1.682-1.682,2.909,2.909,0,0,0-2.906-2.905h-1.03c-3.23,0-5.317,2.491-5.317,6.346v2.294a6.351,6.351,0,0,0,3.451,5.644v1.943l-4.3,1.43c-.038.012-.074.027-.112.041l-.112-.069Zm7.415,8.438a5.128,5.128,0,0,1-5.123-5.123V325.2c0-2.476,1.075-5.123,4.094-5.123h1.03a1.684,1.684,0,0,1,1.682,1.682,2.909,2.909,0,0,0,2.905,2.905h.506a5.184,5.184,0,0,1,.028.535v2.294A5.128,5.128,0,0,1,840.29,332.612Zm1.683.995v1.91c0,.371-.769.684-1.678.684s-1.677-.313-1.677-.684V333.61a6.318,6.318,0,0,0,3.355,0Zm-12.9,3.006A5.977,5.977,0,0,1,835,341.676c0,.007,0,.012,0,.019s.008.034.012.051a.594.594,0,0,0,.019.062c.006.016.013.03.02.045a.606.606,0,0,0,.031.058c.008.013.017.026.027.039a.608.608,0,0,0,.042.051l.033.034a.6.6,0,0,0,.051.042l.039.028a.623.623,0,0,0,.059.032c.014.007.027.014.042.02a.6.6,0,0,0,.074.023c.012,0,.023.007.035.01a.6.6,0,0,0,.117.012h0a1.019,1.019,0,0,1,0,2.039c-.015,0-.028,0-.042,0a.436.436,0,0,0-.124.022c-.018.005-.036.01-.053.016a.62.62,0,0,0-.059.028c-.016.008-.031.016-.046.025a.591.591,0,0,0-.052.038c-.014.011-.029.022-.042.035s-.028.029-.042.045-.025.028-.036.044-.022.035-.033.053-.019.032-.027.049a.61.61,0,0,0-.024.064c0,.013-.01.024-.014.037-.757,2.942-2.773,4.434-5.991,4.434a5.71,5.71,0,0,1-5.878-4.453c0-.011-.009-.02-.012-.03a.592.592,0,0,0-.025-.062c-.008-.017-.018-.034-.027-.05a.569.569,0,0,0-.033-.05c-.012-.016-.025-.032-.039-.047s-.026-.027-.04-.04a.6.6,0,0,0-.047-.039.56.56,0,0,0-.047-.032c-.017-.011-.035-.02-.053-.029l-.053-.023a.6.6,0,0,0-.06-.018l-.054-.012a.565.565,0,0,0-.068-.007c-.011,0-.021,0-.031,0a1.019,1.019,0,1,1,0-2.039l.017,0a.623.623,0,0,0,.068-.007c.018,0,.036,0,.053-.008a.632.632,0,0,0,.061-.019c.018-.006.036-.012.053-.02a.567.567,0,0,0,.052-.028c.017-.01.034-.019.05-.031a.578.578,0,0,0,.045-.037.561.561,0,0,0,.043-.04.581.581,0,0,0,.038-.045c.012-.015.024-.03.035-.047s.019-.034.028-.051.019-.036.026-.055.012-.036.017-.055a.614.614,0,0,0,.016-.063c0-.006,0-.012,0-.018A5.978,5.978,0,0,1,829.078,336.613Zm-16.051-18.347a.61.61,0,0,0-.067.006c-.017,0-.033,0-.05.007a.6.6,0,0,0-.064.019c-.016.005-.033.01-.049.016a.6.6,0,0,0-.058.03c-.015.009-.031.016-.046.026a.613.613,0,0,0-.054.043c-.012.011-.025.02-.037.031a.615.615,0,0,0-.051.061c-.007.009-.016.017-.023.027l0,.006a.625.625,0,0,0-.034.062c-.008.016-.018.032-.025.049l0,.008a9.24,9.24,0,0,0-.564,3.307v1.18a7.923,7.923,0,0,1-.6-2.908c0-4,2.942-6.579,7.495-6.579,3.823,0,7.68,2.034,7.68,6.579a8.064,8.064,0,0,1-.607,3.029v-1.3a9.167,9.167,0,0,0-.6-3.4.609.609,0,0,0-.744-.356c-.014,0-.028.007-.042.012l-.009,0c-.011,0-.019.011-.03.015a.619.619,0,0,0-.066.031c-1.21.72-2.952.509-5.65-.685-.009,0-.018-.005-.028-.009a.576.576,0,0,0-.061-.02.567.567,0,0,0-.057-.013c-.019,0-.038-.005-.058-.007s-.041,0-.061,0l-.056,0a.579.579,0,0,0-.061.01c-.018,0-.035.009-.053.015a.586.586,0,0,0-.063.024l-.025.01c-.008,0-.014.009-.021.014a.64.64,0,0,0-.058.037c-.015.011-.029.021-.042.033s-.031.028-.045.044-.026.029-.038.044-.023.031-.033.048-.022.037-.032.056-.01.015-.014.024-.005.018-.009.028a.623.623,0,0,0-.02.061c-.005.019-.01.038-.013.057s-.005.039-.007.059,0,.04,0,.059a.554.554,0,0,0,0,.058c0,.02.006.04.01.059s.009.037.015.055a.624.624,0,0,0,.023.061c0,.009.006.018.01.027l.887,1.756a10.122,10.122,0,0,1-5.439-1.8l-.007,0a.588.588,0,0,0-.055-.03.609.609,0,0,0-.056-.028l-.007,0c-.014-.005-.029-.007-.043-.012a.638.638,0,0,0-.066-.018.607.607,0,0,0-.062-.006C813.064,318.268,813.045,318.266,813.027,318.266Zm.1,6.248v-2.549a8.625,8.625,0,0,1,.256-2.149,11.168,11.168,0,0,0,5.685,1.586q.39,0,.781-.028c.02,0,.038-.007.058-.01s.033,0,.049-.009a.6.6,0,0,0,.121-.044h0a.612.612,0,0,0,.1-.066c.013-.01.023-.023.035-.034a.594.594,0,0,0,.05-.048c.013-.015.022-.031.034-.047s.025-.032.035-.05.014-.031.021-.046a.612.612,0,0,0,.027-.063c.006-.017.008-.035.012-.053a.6.6,0,0,0,.014-.063.627.627,0,0,0,0-.121h0c0-.007,0-.014,0-.021a.585.585,0,0,0-.017-.1.6.6,0,0,0-.046-.118l-.591-1.17a9.151,9.151,0,0,0,2.969.59,4.671,4.671,0,0,0,1.613-.271,8.469,8.469,0,0,1,.305,2.334v2.549a5.759,5.759,0,1,1-11.518,0Zm7.7,6.707v1.194c0,.456-.867.828-1.933.828s-1.931-.371-1.931-.828v-1.19a6.959,6.959,0,0,0,1.924.272h0A6.958,6.958,0,0,0,820.821,331.221Zm-8.053,7.718a.612.612,0,0,0-.612.612v13.66H809.3v-15.7a2.917,2.917,0,0,1,2-2.773l4.637-1.543a4.065,4.065,0,0,0,5.9,0l4.629,1.543a2.916,2.916,0,0,1,1.2.794,7.2,7.2,0,0,0-5.642,5.508,2.241,2.241,0,0,0,.064,4.375,7.189,7.189,0,0,0,2.623,3.685,5.727,5.727,0,0,0-3.336,4.11h-8V339.55A.611.611,0,0,0,812.767,338.939Zm9.849,14.272a5.01,5.01,0,0,1,3.479-3.371,8.008,8.008,0,0,0,2.924.517,8.811,8.811,0,0,0,3.073-.505,5,5,0,0,1,3.448,3.36Zm26.239,0H846V341.589a.612.612,0,1,0-1.223,0v11.621h-8a5.712,5.712,0,0,0-3.283-4.082,6.709,6.709,0,0,0,2.583-3.716,2.241,2.241,0,0,0,.049-4.371,7.073,7.073,0,0,0-1.995-3.588l3.483-1.159a1.982,1.982,0,0,0,.835.742,4.207,4.207,0,0,0,1.848.389,3.049,3.049,0,0,0,2.685-1.131l4.119,1.373a2.564,2.564,0,0,1,1.755,2.434Z" transform="translate(-808.078 -312.434)" fill="#f2b02d"/>
  <path id="Path_165" data-name="Path 165" d="M988.948,625.414l.1,0a2.061,2.061,0,0,0,1.642-.884.607.607,0,0,0-.165-.839.616.616,0,0,0-.849.155.838.838,0,0,1-.664.344.806.806,0,0,1-.572-.329.612.612,0,1,0-1.008.693A2.017,2.017,0,0,0,988.948,625.414Z" transform="translate(-968.062 -590.146)" fill="#f2b02d"/>
  <path id="Path_166" data-name="Path 166" d="M1021.151,589.781a.612.612,0,0,0,.612-.612V587.9a.612.612,0,1,0-1.223,0v1.267A.612.612,0,0,0,1021.151,589.781Z" transform="translate(-997.704 -557.75)" fill="#f2b02d"/>
  <path id="Path_167" data-name="Path 167" d="M975.623,589.781a.612.612,0,0,0,.612-.612V587.9a.612.612,0,1,0-1.223,0v1.267A.612.612,0,0,0,975.623,589.781Z" transform="translate(-957.069 -557.75)" fill="#f2b02d"/>
</svg>
