<svg id="Icon" xmlns="http://www.w3.org/2000/svg" width="42.003" height="42" viewBox="0 0 42.003 42">
  <path id="Path_152" data-name="Path 152" d="M510.594,829.688a.809.809,0,0,1-.792-.984l1.574-7.151a.81.81,0,0,1,1.365-.4l1.573,1.574a.811.811,0,0,1-1.147,1.146l-.526-.527-.976,4.435,4.347-1.064-.556-.555a.811.811,0,0,1,1.146-1.146l1.574,1.573a.811.811,0,0,1-.38,1.36l-7.009,1.716A.776.776,0,0,1,510.594,829.688Z" transform="translate(-480.748 -790.31)" fill="#f2b02d"/>
  <path id="Path_153" data-name="Path 153" d="M397.946,722.911a20.993,20.993,0,1,1,14.879-6.151.811.811,0,0,1-1.153-1.14,19.383,19.383,0,1,0-13.726,5.671,21.049,21.049,0,0,0,5.324-.736.81.81,0,0,1,.412,1.567A22.634,22.634,0,0,1,397.946,722.911Z" transform="translate(-376.968 -680.911)" fill="#f2b02d"/>
  <path id="Path_154" data-name="Path 154" d="M409.535,731.254a17.711,17.711,0,1,1,14.286-7.145.811.811,0,0,1-1.3-.966,16.153,16.153,0,1,0-12.984,6.491.81.81,0,1,1,0,1.62Z" transform="translate(-388.557 -692.494)" fill="#f2b02d"/>
  <path id="Path_155" data-name="Path 155" d="M463.043,769.794a2.792,2.792,0,0,1-2.765-2.812.811.811,0,0,1,1.621,0,1.171,1.171,0,0,0,1.144,1.192,1.208,1.208,0,0,0,1.192-1.192,1.171,1.171,0,0,0-1.192-1.145.81.81,0,1,1,0-1.619,2.788,2.788,0,1,1,0,5.576Z" transform="translate(-442.065 -746.006)" fill="#f2b02d"/>
  <path id="Path_156" data-name="Path 156" d="M470.03,724.936a.81.81,0,0,1-.811-.81V712.683a.811.811,0,0,1,1.621,0v11.443A.81.81,0,0,1,470.03,724.936Z" transform="translate(-449.052 -705.104)" fill="#f2b02d"/>
  <path id="Path_157" data-name="Path 157" d="M439.061,786.71a.81.81,0,0,1-.573-1.383l5.387-5.387a.811.811,0,0,1,1.146,1.146l-5.387,5.387A.809.809,0,0,1,439.061,786.71Z" transform="translate(-424.853 -758.106)" fill="#f2b02d"/>
</svg>
