<svg id="Pinterest" xmlns="http://www.w3.org/2000/svg" width="50" height="50.02" viewBox="0 0 50 50.02">
  <ellipse id="Bg" cx="25" cy="25.01" rx="25" ry="25.01" transform="translate(0 0)" fill="#e13138"/>
  <path id="Icon" d="M165.12,133.9c-6.99,0-10.52,4.94-10.52,9.06,0,2.5.96,4.71,3.01,5.54a.506.506,0,0,0,.74-.36c.07-.25.38-.9.45-1.16a.7.7,0,0,0-.21-.81,3.7,3.7,0,0,1-.96-2.67c0-4.2,2.62-7.19,7.08-7.19,3.95,0,6.12,2.45,6.12,5.63,0,4.18-1.88,7.58-4.67,7.58a2.153,2.153,0,0,1-2.32-2.66c.44-1.84,1.3-3.82,1.3-5.15a1.84,1.84,0,0,0-1.98-2.04c-1.57,0-2.84,1.47-2.84,3.62a3.943,3.943,0,0,0,.45,2.05s-1.59,6.97-1.88,8.15a16.061,16.061,0,0,0-.04,5.51.2.2,0,0,0,.35.08,15.509,15.509,0,0,0,2.66-4.75c.18-.64,1.04-3.98,1.04-3.98.51.96,2.01,1.58,3.59,1.58,4.73,0,7.94-4.03,7.94-9.71C174.44,137.91,170.74,133.9,165.12,133.9Z" transform="translate(-139.14 -120.51)" fill="#fff"/>
</svg>
