<svg id="Whatsapp" xmlns="http://www.w3.org/2000/svg" xmlns:xlink="http://www.w3.org/1999/xlink" width="49.777" height="50" viewBox="0 0 49.777 50">
  <defs>
    <linearGradient id="linear-gradient" x1="0.5" y1="1" x2="0.5" gradientUnits="objectBoundingBox">
      <stop offset="0" stop-color="#20b038"/>
      <stop offset="1" stop-color="#60d66a"/>
    </linearGradient>
  </defs>
  <path id="Path_94" data-name="Path 94" d="M42.524,7.266a24.787,24.787,0,0,0-39.008,29.9L0,50l13.139-3.445a24.768,24.768,0,0,0,11.843,3.016h.011a24.786,24.786,0,0,0,17.532-42.3ZM24.993,45.386h-.008A20.574,20.574,0,0,1,14.5,42.516l-.753-.446-7.8,2.044,2.082-7.6-.49-.779a20.6,20.6,0,1,1,17.451,9.651Z" fill="#e0e0e0"/>
  <path id="Path_95" data-name="Path 95" d="M27.875,68.8l3.356-12.252A23.653,23.653,0,1,1,51.725,68.387h-.011a23.645,23.645,0,0,1-11.3-2.878Z" transform="translate(-26.737 -20.222)" fill="url(#linear-gradient)"/>
  <rect id="Rectangle_20" data-name="Rectangle 20" width="27.836" height="26.081" transform="translate(11.06 11.893)" fill="none" opacity="0.08"/>
  <path id="Path_96" data-name="Path 96" d="M313.615,324.1c-.459-1.019-.941-1.04-1.377-1.058-.357-.015-.765-.014-1.173-.014a2.249,2.249,0,0,0-1.632.766,6.862,6.862,0,0,0-2.143,5.105c0,3.012,2.194,5.922,2.5,6.331s4.235,6.786,10.457,9.24c5.171,2.039,6.223,1.634,7.346,1.532s3.622-1.48,4.132-2.91a5.115,5.115,0,0,0,.357-2.91c-.153-.255-.561-.408-1.173-.714s-3.622-1.787-4.183-1.991-.969-.306-1.378.307-1.581,1.991-1.938,2.4-.714.46-1.327.154a16.742,16.742,0,0,1-4.923-3.038,18.437,18.437,0,0,1-3.406-4.239c-.357-.612-.038-.944.269-1.249.275-.274.612-.715.918-1.072a4.2,4.2,0,0,0,.612-1.021,1.127,1.127,0,0,0-.051-1.072c-.153-.306-1.343-3.333-1.887-4.544Z" transform="translate(-294.747 -309.843)" fill="#fff" fill-rule="evenodd"/>
  <path id="Path_97" data-name="Path 97" d="M49.036,7.3a24.5,24.5,0,0,0-38.56,29.552L7,49.54l12.988-3.406A24.483,24.483,0,0,0,31.7,49.116h.011A24.5,24.5,0,0,0,49.036,7.3ZM31.706,44.979H31.7a20.338,20.338,0,0,1-10.364-2.838l-.744-.441-7.707,2.021L14.94,36.21l-.485-.77a20.364,20.364,0,1,1,17.25,9.54Z" transform="translate(-6.714 -0.109)" fill="#fff"/>
</svg>
