<svg xmlns="http://www.w3.org/2000/svg" xmlns:xlink="http://www.w3.org/1999/xlink" width="50" height="50" viewBox="0 0 50 50">
  <defs>
    <linearGradient id="linear-gradient" x1="-1.971" y1="2.61" x2="-1.264" y2="3.317" gradientUnits="objectBoundingBox">
      <stop offset="0" stop-color="#2489be"/>
      <stop offset="1" stop-color="#0575b3"/>
    </linearGradient>
  </defs>
  <g id="Linkedin" transform="translate(-797 -330)">
    <path id="Icon" d="M32.025,7.025a25,25,0,1,0,25,25A25,25,0,0,0,32.025,7.025Zm-6.67,37.086H19.866V26.378h5.489ZM22.584,24.056a3.272,3.272,0,1,1,3.246-3.272A3.259,3.259,0,0,1,22.584,24.056ZM45.925,44.111H40.463V34.8c0-2.553-.97-3.978-2.989-3.978-2.2,0-3.345,1.484-3.345,3.978v9.309H28.864V26.378h5.265v2.388a6.185,6.185,0,0,1,5.344-2.929c3.76,0,6.452,2.3,6.452,7.046V44.111Z" transform="translate(789.975 322.975)" fill="url(#linear-gradient)"/>
  </g>
</svg>
