<svg xmlns="http://www.w3.org/2000/svg" width="50" height="50" viewBox="0 0 50 50">
  <g id="Twitter" transform="translate(-126.444 -2.281)">
    <circle id="Bg" cx="25" cy="25" r="25" transform="translate(126.444 2.281)" fill="#2daae1"/>
    <path id="Icon" d="M257.366,145.751a10.343,10.343,0,0,1-2.975.816,5.2,5.2,0,0,0,2.278-2.866,10.349,10.349,0,0,1-3.29,1.257,5.182,5.182,0,0,0-8.96,3.545,5.239,5.239,0,0,0,.133,1.181,14.708,14.708,0,0,1-10.677-5.412,5.185,5.185,0,0,0,1.6,6.916,5.157,5.157,0,0,1-2.347-.648v.065a5.182,5.182,0,0,0,4.155,5.079,5.154,5.154,0,0,1-1.365.182,5.258,5.258,0,0,1-.975-.091,5.187,5.187,0,0,0,4.838,3.6,10.43,10.43,0,0,1-7.669,2.144,14.731,14.731,0,0,0,22.679-12.41q0-.337-.016-.67A10.554,10.554,0,0,0,257.366,145.751Z" transform="translate(-93.297 -126.303)" fill="#fff"/>
  </g>
</svg>
