<svg xmlns="http://www.w3.org/2000/svg" width="67.633" height="67.635" viewBox="0 0 67.633 67.635">
  <g id="Icon" transform="translate(254.1 -917.848)">
    <path id="Icon-2" data-name="Icon" d="M61.768,44.929,47.859,38.969a2.98,2.98,0,0,0-3.477.857l-6.16,7.526a46.03,46.03,0,0,1-22-22l7.526-6.16A2.973,2.973,0,0,0,24.6,15.71L18.64,1.8A3,3,0,0,0,15.225.075L2.31,3.056A2.98,2.98,0,0,0,0,5.96,57.615,57.615,0,0,0,57.621,63.582a2.98,2.98,0,0,0,2.906-2.31l2.98-12.915a3.016,3.016,0,0,0-1.74-3.427Z" transform="translate(-252.1 919.901)" fill="none" stroke="#f2b02d" stroke-width="4"/>
  </g>
</svg>
