<svg width="26" height="19" viewBox="0 0 26 19" fill="none" xmlns="http://www.w3.org/2000/svg">
<rect x="0.5" y="1" width="25" height="17" rx="3.5" fill="#1F72CD" stroke="#D9D9D9"/>
<path fill-rule="evenodd" clip-rule="evenodd" d="M5.6443 7.01855L3.5 11.9742H6.06703L6.38527 11.1841H7.11269L7.43093 11.9742H10.2565V11.3711L10.5083 11.9742H11.9699L12.2217 11.3584V11.9742H18.0981L18.8127 11.2046L19.4817 11.9742L22.5 11.9806L20.3489 9.51021L22.5 7.01855H19.5285L18.833 7.77395L18.185 7.01855H11.7922L11.2432 8.29765L10.6814 7.01855H8.11972V7.60109L7.83475 7.01855H5.6443ZM14.4196 7.72226H17.7941L18.8262 8.88656L19.8916 7.72226H20.9237L19.3555 9.50951L20.9237 11.2762H19.8448L18.8127 10.0983L17.7419 11.2762H14.4196V7.72226ZM15.2529 9.10768V8.45853V8.45791H17.3585L18.2773 9.49606L17.3178 10.5399H15.2529V9.8312H17.0939V9.10768H15.2529ZM6.14098 7.72226H7.39227L8.81459 11.0827V7.72226H10.1853L11.2839 10.1317L12.2964 7.72226H13.6603V11.2783H12.8304L12.8236 8.4918L11.6137 11.2783H10.8713L9.65461 8.4918V11.2783H7.94733L7.62366 10.481H5.87499L5.55199 11.2776H4.63725L6.14098 7.72226ZM6.17359 9.74408L6.7497 8.32392L7.32515 9.74408H6.17359Z" fill="white"/>
</svg>
