<svg width="26" height="19" viewBox="0 0 26 19" fill="none" xmlns="http://www.w3.org/2000/svg">
<rect x="0.5" y="1" width="25" height="17" rx="3.5" fill="white" stroke="#D9D9D9"/>
<path fill-rule="evenodd" clip-rule="evenodd" d="M13.2414 13.6593C12.2494 14.4876 10.9625 14.9877 9.55628 14.9877C6.41859 14.9877 3.875 12.498 3.875 9.42693C3.875 6.35583 6.41859 3.86621 9.55628 3.86621C10.9625 3.86621 12.2494 4.36627 13.2415 5.19461C14.2335 4.36628 15.5204 3.86623 16.9266 3.86623C20.0643 3.86623 22.6079 6.35585 22.6079 9.42695C22.6079 12.4981 20.0643 14.9877 16.9266 14.9877C15.5204 14.9877 14.2335 14.4876 13.2414 13.6593Z" fill="#ED0006"/>
<path fill-rule="evenodd" clip-rule="evenodd" d="M13.2422 13.6593C14.4637 12.6393 15.2383 11.1217 15.2383 9.42693C15.2383 7.73219 14.4637 6.21453 13.2422 5.19459C14.2343 4.36626 15.5211 3.86621 16.9273 3.86621C20.065 3.86621 22.6086 6.35583 22.6086 9.42693C22.6086 12.498 20.065 14.9877 16.9273 14.9877C15.5211 14.9877 14.2343 14.4876 13.2422 13.6593Z" fill="#F9A000"/>
<path fill-rule="evenodd" clip-rule="evenodd" d="M13.2422 13.659C14.4637 12.639 15.2383 11.1214 15.2383 9.42665C15.2383 7.73193 14.4637 6.21427 13.2422 5.19434C12.0207 6.21427 11.2461 7.73193 11.2461 9.42665C11.2461 11.1214 12.0207 12.639 13.2422 13.659Z" fill="#FF5E00"/>
</svg>
