<svg width="26" height="19" viewBox="0 0 26 19" fill="none" xmlns="http://www.w3.org/2000/svg">
<rect x="0.5" y="1" width="25" height="17" rx="3.5" fill="white" stroke="#D9D9D9"/>
<path fill-rule="evenodd" clip-rule="evenodd" d="M8.26504 12.3187H6.68994L5.50881 7.76928C5.45275 7.56001 5.33371 7.375 5.15862 7.2878C4.72165 7.06867 4.24013 6.89428 3.71484 6.80632V6.63117H6.2522C6.60239 6.63117 6.86504 6.89428 6.90881 7.19985L7.52165 10.4815L9.09597 6.63117H10.6273L8.26504 12.3187ZM11.5028 12.3187H10.0152L11.2401 6.63117H12.7277L11.5028 12.3187ZM14.6522 8.20679C14.696 7.90046 14.9586 7.72531 15.265 7.72531C15.7466 7.68133 16.2711 7.76928 16.7088 7.98766L16.9715 6.76311C16.5337 6.58796 16.0522 6.5 15.6152 6.5C14.1715 6.5 13.1209 7.28781 13.1209 8.38118C13.1209 9.21296 13.865 9.6497 14.3903 9.91281C14.9586 10.1752 15.1775 10.3503 15.1337 10.6127C15.1337 11.0062 14.696 11.1813 14.259 11.1813C13.7337 11.1813 13.2084 11.0502 12.7277 10.831L12.465 12.0563C12.9903 12.2747 13.5586 12.3627 14.0839 12.3627C15.7028 12.4059 16.7088 11.6188 16.7088 10.4375C16.7088 8.94985 14.6522 8.86266 14.6522 8.20679ZM21.9148 12.3187L20.7337 6.63117H19.465C19.2024 6.63117 18.9397 6.80632 18.8522 7.06867L16.665 12.3187H18.1964L18.502 11.4877H20.3835L20.5586 12.3187H21.9148ZM19.6839 8.16281L20.1209 10.3063H18.896L19.6839 8.16281Z" fill="#172B85"/>
</svg>
