<svg xmlns="http://www.w3.org/2000/svg" width="36.004" height="36" viewBox="0 0 36.004 36">
  <g id="Group_93" data-name="Group 93" transform="translate(-14 -14)">
    <path id="Path_170" data-name="Path 170" d="M47.152,16.34a.508.508,0,0,1,.508.508V47.156a.508.508,0,0,1-.508.508h-30.3a.508.508,0,0,1-.508-.508V16.848a.508.508,0,0,1,.508-.508H47.156m0-2.34H16.848A2.848,2.848,0,0,0,14,16.848V47.156A2.848,2.848,0,0,0,16.848,50H47.156A2.848,2.848,0,0,0,50,47.152v-30.3A2.848,2.848,0,0,0,47.152,14Z" fill="#f2b02d"/>
    <rect id="Rectangle_22" data-name="Rectangle 22" width="4.223" height="15.023" transform="translate(22.377 27.104)" fill="#f2b02d"/>
    <path id="Path_171" data-name="Path 171" d="M63,50.4c-3.618,0-3.683,2.092-3.683,2.236V50.4H55V65.423h4.32V56.848a1.96,1.96,0,0,1,2.243-2.11A1.994,1.994,0,0,1,63.59,56.8v8.64h4.273v-9.36C67.863,51.642,65.44,50.4,63,50.4Z" transform="translate(-26.24 -23.296)" fill="#f2b02d"/>
    <circle id="Ellipse_10" data-name="Ellipse 10" cx="2.11" cy="2.11" r="2.11" transform="translate(22.377 21.873)" fill="#f2b02d"/>
  </g>
</svg>
