<svg xmlns="http://www.w3.org/2000/svg" width="18" height="27.414" viewBox="0 0 18 27.414">
  <path id="Icon" d="M23,8H22V4.6a1.965,1.965,0,0,0-.9-1.7,1.857,1.857,0,0,0-1.9-.1L7.6,8.1c-.1,0-.1.1-.2.1h0a.1.1,0,0,0-.1.1A.908.908,0,0,0,7,9H7V28a2.006,2.006,0,0,0,2,2H23a2.006,2.006,0,0,0,2-2V10A2.006,2.006,0,0,0,23,8ZM20,18.5a6,6,0,0,1-1.4,4.3,3.658,3.658,0,0,0-.9,2.8L18,28H14l.3-2.4a3.658,3.658,0,0,0-.9-2.8A6.348,6.348,0,0,1,12,18.5V13a1,1,0,0,1,2,0v6h1V13a1,1,0,1,1,2,0v6h1V13a1,1,0,0,1,2,0ZM20,8H12.6L20,4.6Z" transform="translate(-7 -2.586)" fill="#fff"/>
</svg>
