<svg xmlns="http://www.w3.org/2000/svg" width="15" height="15.876" viewBox="0 0 15 15.876">
  <g id="Arrow" transform="translate(-1714.092 -1788)">
    <path id="Arrow-2" data-name="Arrow" d="M143,188.938a1.26,1.26,0,0,1-.377.927l-6.634,6.634a1.316,1.316,0,0,1-1.844,0l-.764-.764a1.3,1.3,0,0,1,0-1.855l2.986-2.986h-7.174a1.086,1.086,0,0,1-.861-.382,1.36,1.36,0,0,1-.331-.922v-1.3a1.36,1.36,0,0,1,.331-.922,1.086,1.086,0,0,1,.861-.382h7.174l-2.986-3a1.28,1.28,0,0,1,0-1.834l.764-.764a1.292,1.292,0,0,1,1.844,0l6.634,6.634A1.206,1.206,0,0,1,143,188.938Z" transform="translate(1586.092 1607)" fill="#520b75"/>
  </g>
</svg>
