<svg xmlns="http://www.w3.org/2000/svg" width="18.622" height="20.536" viewBox="0 0 18.622 20.536">
  <path id="Icon" d="M20.279,9.478a10.591,10.591,0,0,1-.341,2.3,6.647,6.647,0,0,1-.893,2.017,4.713,4.713,0,0,1-1.514,1.433,4.273,4.273,0,0,1-2.211.545,3.205,3.205,0,0,1-1.6-.391,2.738,2.738,0,0,1-1.08-1.107,3.425,3.425,0,0,1-2.9,1.455,2.946,2.946,0,0,1-2.529-1.36,4.453,4.453,0,0,1-.629-1.576A6.8,6.8,0,0,1,6.5,10.736a9.55,9.55,0,0,1,.626-2.518A6.843,6.843,0,0,1,8.286,6.289,4.9,4.9,0,0,1,9.877,5.06a4.44,4.44,0,0,1,1.935-.43,6.017,6.017,0,0,1,1.157.1,4.738,4.738,0,0,1,.9.269,4.857,4.857,0,0,1,.744.393c.227.146.456.3.683.452l-.562,6.468a2.15,2.15,0,0,0,.017.757,1.059,1.059,0,0,0,.231.467.831.831,0,0,0,.375.244,1.391,1.391,0,0,0,1.317-.259,2.806,2.806,0,0,0,.706-.9,5.785,5.785,0,0,0,.475-1.35A9.263,9.263,0,0,0,18.06,9.59,10.743,10.743,0,0,0,17.8,6.448a6.244,6.244,0,0,0-1.163-2.43A5.4,5.4,0,0,0,14.55,2.452,7.564,7.564,0,0,0,11.513,1.9a6.7,6.7,0,0,0-3,.654A6.89,6.89,0,0,0,6.229,4.366,8.708,8.708,0,0,0,4.735,7.1a12.3,12.3,0,0,0-.629,3.4,11.308,11.308,0,0,0,.321,3.47A6.267,6.267,0,0,0,5.7,16.452a5.291,5.291,0,0,0,2.148,1.494,8.24,8.24,0,0,0,2.964.5,10.153,10.153,0,0,0,1.945-.209c.321-.064.625-.141.915-.226a6.885,6.885,0,0,0,.788-.282l.407,1.83a4.516,4.516,0,0,1-.882.436,8.486,8.486,0,0,1-1.042.3,10.167,10.167,0,0,1-2.176.244A11.413,11.413,0,0,1,6.795,19.9a7.3,7.3,0,0,1-2.892-1.9,7.987,7.987,0,0,1-1.736-3.14A13.394,13.394,0,0,1,1.681,10.5a13.294,13.294,0,0,1,.834-4.183,10.353,10.353,0,0,1,2.01-3.324A9.157,9.157,0,0,1,7.591.8a9.6,9.6,0,0,1,3.97-.8,10.021,10.021,0,0,1,3.847.689,7.483,7.483,0,0,1,2.777,1.938,7.952,7.952,0,0,1,1.648,2.994A11.447,11.447,0,0,1,20.279,9.478ZM9.259,10.736A4.365,4.365,0,0,0,9.485,12.9a1.161,1.161,0,0,0,1.116.731,1.233,1.233,0,0,0,.382-.071,1.364,1.364,0,0,0,.44-.264,2.349,2.349,0,0,0,.447-.539,4.136,4.136,0,0,0,.411-.911l.439-5.025a2.622,2.622,0,0,0-.683-.09,2.36,2.36,0,0,0-1.136.26,2.248,2.248,0,0,0-.8.765,4.491,4.491,0,0,0-.534,1.258,10.668,10.668,0,0,0-.3,1.72Z" transform="translate(-1.67)" fill="#520b75"/>
</svg>
