<svg xmlns="http://www.w3.org/2000/svg" width="11.738" height="12.424" viewBox="0 0 11.738 12.424">
  <path id="Arrow" d="M139.738,187.212a.986.986,0,0,1-.3.726l-5.191,5.191a1.03,1.03,0,0,1-1.443,0l-.6-.6a1.02,1.02,0,0,1,0-1.451l2.336-2.336h-5.614a.85.85,0,0,1-.674-.3,1.065,1.065,0,0,1-.259-.722V186.7a1.065,1.065,0,0,1,.259-.722.85.85,0,0,1,.674-.3h5.614l-2.336-2.344a1,1,0,0,1,0-1.435l.6-.6a1.011,1.011,0,0,1,1.443,0l5.191,5.191A.944.944,0,0,1,139.738,187.212Z" transform="translate(-128 -181)" fill="#fff"/>
</svg>
